<svg width="1564" height="1275" viewBox="0 0 1564 1275" fill="none" xmlns="http://www.w3.org/2000/svg">
<path d="M1562.71 1052.7C1552.88 1119.62 1490.16 1165.99 1422.68 1156.2C1415.68 1155.19 1408.95 1153.58 1402.41 1151.52C1381.28 1147.62 1144.51 1068.07 1039.64 1193.13C988.073 1252.1 908.267 1284.6 824.605 1272.49C750.999 1261.84 690.171 1218.99 654.484 1160.44L575.358 1046.37C538.31 990.59 484.891 947.443 422.325 922.702L238.669 850.091C226.383 846.005 214.398 841.244 202.83 835.921L202.376 835.733V835.696C65.6745 772.569 -19.1594 626.109 3.71252 470.578C31.6502 280.672 209.522 149.169 401.041 176.834C420.094 179.571 438.505 183.844 456.273 189.392L644.05 232.052C746.879 255.406 854.811 228.491 934.277 159.666C955.599 141.222 981.155 114.12 984.67 108.759C984.708 108.722 984.822 108.722 984.897 108.722C1048.79 31.0497 1151.05 -12.3971 1258.34 3.12228C1420.82 26.5888 1533.33 176.235 1509.63 337.351C1509.29 339.563 1449.78 660.522 1449.78 660.522C1449.71 660.972 1449.63 661.459 1449.52 661.909C1436.06 738.643 1451.37 817.627 1491.86 884.391L1543.84 968.06C1559.76 992.202 1567.2 1021.93 1562.71 1052.7Z" fill="url(#paint0_linear)"/>
<defs>
<linearGradient id="paint0_linear" x1="384.66" y1="82.9663" x2="1062.82" y2="1128.35" gradientUnits="userSpaceOnUse">
<stop stop-color="#FF912C"/>
<stop offset="1" stop-color="#F33759"/>
</linearGradient>
</defs>
</svg>
