<svg width="237" height="300" viewBox="0 0 237 300" fill="none" xmlns="http://www.w3.org/2000/svg">
<path d="M118.506 0C98.1153 0.00355246 78.0704 5.26747 60.309 15.2829C42.5475 25.2983 27.6702 39.7265 17.1153 57.1727C6.56031 74.6189 0.684662 94.4931 0.056302 114.874C-0.572057 135.255 4.06813 155.453 13.5283 173.517C13.5283 173.517 13.5283 173.517 13.5283 173.555C15.1475 176.61 16.8939 179.604 18.7676 182.537C22.2017 186.837 26.547 190.322 31.4904 192.74C36.4338 195.158 41.8521 196.449 47.3548 196.521C47.3548 196.284 47.309 196.116 47.3014 195.879C47.2403 195.391 47.2021 194.902 47.1868 194.405C47.1706 193.672 47.2166 192.939 47.3243 192.213C47.1895 191.456 47.1104 190.691 47.0875 189.922C47.0751 188.981 47.1647 188.041 47.3548 187.119V187.043C47.3548 186.768 47.3548 186.501 47.3548 186.233C47.2755 185.656 47.2271 185.074 47.2097 184.492C47.1978 183.869 47.2284 183.247 47.3014 182.628C47.2132 182.013 47.1596 181.394 47.141 180.772C47.1246 179.946 47.186 179.12 47.3243 178.305C47.1813 177.516 47.0996 176.717 47.0799 175.915C47.0593 175.008 47.1361 174.102 47.309 173.211C47.2555 172.753 47.225 172.295 47.2097 171.829C47.1906 171.008 47.2494 170.187 47.3854 169.377H47.1792C44.2616 169.377 41.5198 167.98 39.0987 165.513C35.2188 161.564 32.1638 154.866 30.5905 146.701C28.857 141.338 27.6246 135.826 26.9092 130.235C24.9105 114.907 26.7855 99.3219 32.3628 84.9051C37.9401 70.4882 47.0419 57.6992 58.8361 47.7069C70.6304 37.7146 84.741 30.8378 99.8783 27.705C115.016 24.5721 130.697 25.2832 145.488 29.7732C160.28 34.2632 173.71 42.3889 184.552 53.4076C195.393 64.4264 203.3 77.9867 207.55 92.8491C211.799 107.712 212.256 123.402 208.878 138.487C205.5 153.571 198.396 167.568 188.213 179.199L141.296 234.808L120.675 259.248L99.7405 235.51L75.3005 207.786C75.3005 207.786 68.7322 212.522 53.7016 217.715C52.281 218.211 50.7841 218.7 49.2184 219.197L118.72 299.979L202.732 201.814L213.86 188.83C226.868 171.184 234.726 150.276 236.561 128.431C238.395 106.585 234.135 84.6594 224.253 65.0908C214.372 45.5222 199.256 29.078 180.587 17.5867C161.918 6.09543 140.428 0.00753461 118.506 0V0Z" fill="white"/>
<path d="M45.5073 169.194L100.818 148.405C102.346 148.405 102.483 169.499 102.483 171.05V193.894C102.498 194.626 102.221 195.334 101.714 195.862C101.207 196.39 100.511 196.696 99.7795 196.712L45.5531 196.513L45.5073 169.194Z" fill="white"/>
<path d="M150.623 149.382V136.399C150.623 129.876 144.872 124.591 137.784 124.591H137.41C135.836 124.567 134.287 124.984 132.938 125.794C131.588 126.603 130.492 127.774 129.772 129.173L120.072 149.306C120.054 149.349 120.047 149.396 120.052 149.442C120.057 149.488 120.074 149.533 120.1 149.571C120.127 149.609 120.163 149.64 120.205 149.66C120.247 149.681 120.293 149.69 120.34 149.688V149.688C120.414 149.686 120.487 149.712 120.542 149.762C120.598 149.812 120.632 149.881 120.638 149.955V192.771C120.639 192.808 120.647 192.845 120.662 192.879C120.677 192.913 120.699 192.943 120.726 192.969C120.753 192.994 120.784 193.014 120.819 193.027C120.854 193.041 120.891 193.047 120.928 193.046L148.133 193.161C150.366 193.219 152.564 192.599 154.436 191.381C156.309 190.163 157.767 188.405 158.619 186.34L169.785 156.829C171.106 153.331 168.258 149.688 164.271 149.688H150.913C150.873 149.689 150.833 149.682 150.797 149.667C150.76 149.652 150.727 149.629 150.699 149.6C150.672 149.571 150.651 149.537 150.638 149.499C150.624 149.462 150.619 149.422 150.623 149.382V149.382Z" stroke="white" stroke-width="9.73" stroke-miterlimit="10"/>
<path d="M104.385 150.123H119.859V193.168H100.818V153.705C100.818 152.758 101.194 151.849 101.862 151.178C102.53 150.506 103.438 150.127 104.385 150.123Z" stroke="white" stroke-width="9.73" stroke-miterlimit="10"/>
</svg>
