<svg width="889" height="756" viewBox="0 0 889 756" fill="none" xmlns="http://www.w3.org/2000/svg">
<path d="M888.264 624.192C882.677 663.868 847.027 691.363 808.67 685.561C804.694 684.961 800.869 684.006 797.152 682.783C785.139 680.471 650.555 633.305 590.945 707.455C561.635 742.419 516.272 761.69 468.717 754.51C426.879 748.198 392.303 722.792 372.018 688.073L327.042 620.436C305.983 587.362 275.619 561.778 240.055 547.108L135.663 504.054C128.679 501.631 121.867 498.808 115.292 495.652L115.034 495.541V495.519C37.3303 458.088 -10.8905 371.246 2.11023 279.025C17.9904 166.422 119.095 88.4487 227.957 104.852C238.788 106.475 249.253 109.009 259.352 112.299L366.087 137.593C424.536 151.441 485.887 135.482 531.056 94.6723C543.176 83.7365 557.702 67.6662 559.701 64.4877C559.722 64.4655 559.787 64.4655 559.83 64.4655C596.146 18.4106 654.273 -7.35075 715.258 1.85133C807.617 15.7656 871.567 104.497 858.094 200.029C857.9 201.341 824.077 391.651 824.077 391.651C824.034 391.917 823.991 392.206 823.927 392.473C816.277 437.972 824.98 484.805 847.994 524.392L877.541 574.003C886.588 588.317 890.821 605.944 888.264 624.192Z" fill="url(#paint0_linear)"/>
<defs>
<linearGradient id="paint0_linear" x1="218.646" y1="49.1941" x2="627.433" y2="653.271" gradientUnits="userSpaceOnUse">
<stop stop-color="#FF912C"/>
<stop offset="1" stop-color="#F33759"/>
</linearGradient>
</defs>
</svg>
